<svg width="24" height="27" viewBox="0 0 24 27" fill="none" xmlns="http://www.w3.org/2000/svg">
<path d="M18.3506 10.7509V14.9919" stroke="#505762" stroke-linecap="round" stroke-linejoin="round"/>
<path d="M16.3506 12.8714H20.3506" stroke="#505762" stroke-linecap="round" stroke-linejoin="round"/>
<path d="M18.5259 26.5742H0.611718C0.137434 26.4021 -0.00321544 26.0401 5.5479e-05 25.5282C0.0164101 23.3393 0.00659735 21.1503 0.00659735 18.962C0.00659735 14.5668 0.00986826 10.1722 0.000709678 5.7769C5.5494e-05 5.35659 0.12108 5.04309 0.406304 4.74623C1.81149 3.28345 3.20098 1.80472 4.59047 0.32599C4.80046 0.101961 5.03596 -0.000690098 5.33296 3.49054e-06C9.64208 0.00347143 13.9518 0.00208425 18.261 0.00277784C18.8255 0.00277784 19.1042 0.298247 19.1042 0.894733C19.1042 2.9103 19.1042 4.92656 19.1042 6.94213C19.1042 7.24315 19.2464 7.42233 19.5307 7.47966C22.4746 8.07199 24.532 11.3242 23.8784 14.4128C23.3328 16.9908 21.8001 18.5528 19.3639 19.1098C19.1376 19.1618 19.1003 19.2519 19.1003 19.4628C19.1062 21.47 19.0918 23.4773 19.112 25.4845C19.1173 25.9985 18.9989 26.3793 18.5246 26.5755L18.5259 26.5742ZM1.45562 6.25756V25.0087H17.6663V24.6786C17.6663 22.9654 17.6663 21.2523 17.6663 19.5391C17.6663 19.2885 17.5477 19.1394 17.3104 19.0917C14.2606 18.4821 12.2065 15.2243 12.9202 12.04C13.4782 9.55072 14.9855 8.02413 17.3503 7.46857C17.5891 7.41239 17.6768 7.33817 17.6742 7.05935C17.6591 5.32884 17.6663 3.59834 17.6663 1.86784V1.55156H5.90407C5.90407 1.67225 5.90407 1.7742 5.90407 1.87616C5.90407 3.03584 5.90407 4.19483 5.90407 5.35451C5.90407 5.97041 5.63193 6.25687 5.04839 6.25687C3.95264 6.25687 2.85688 6.25687 1.76112 6.25687C1.66495 6.25687 1.56813 6.25756 1.45562 6.25756ZM14.224 13.2704C14.2102 15.6869 16.0897 17.6893 18.3787 17.6962C20.652 17.7039 22.5472 15.7181 22.5583 13.3183C22.5694 10.8789 20.6971 8.87447 18.3996 8.86684C16.1126 8.85852 14.2377 10.8359 14.224 13.2704ZM4.45309 4.71294V2.74107C3.83423 3.39651 3.20556 4.06235 2.59062 4.71294H4.45309Z" fill="#505762"/>
<path d="M8.27126 9.37235C6.92299 9.37235 5.57472 9.37443 4.22644 9.37097C3.72207 9.36958 3.39105 8.9881 3.45647 8.49635C3.50749 8.10794 3.80449 7.84715 4.2199 7.84438C4.9225 7.83883 5.62509 7.84299 6.32834 7.84299C8.30594 7.84299 10.2829 7.8423 12.2605 7.84368C12.7433 7.84368 13.0625 8.13707 13.0736 8.57958C13.0848 9.04775 12.7701 9.37166 12.2919 9.37235C10.9521 9.37443 9.61169 9.37305 8.27192 9.37305L8.27126 9.37235Z" fill="#505762"/>
<path d="M8.26414 18.7201C6.92437 18.7201 5.58395 18.7208 4.24418 18.7201C3.84121 18.7201 3.54421 18.4967 3.46767 18.1465C3.35842 17.6471 3.67897 17.2129 4.1768 17.1949C4.43782 17.1859 4.69949 17.1928 4.96117 17.1928C7.39604 17.1928 9.83091 17.1928 12.2658 17.1928C12.7355 17.1928 13.0534 17.4786 13.0717 17.9079C13.092 18.3878 12.7761 18.7187 12.2841 18.7194C10.9934 18.7222 9.70204 18.7201 8.41133 18.7201C8.36227 18.7201 8.31321 18.7201 8.26414 18.7201Z" fill="#505762"/>
<path d="M7.44558 15.6044C6.37534 15.6044 5.30509 15.6064 4.2355 15.6037C3.78738 15.6023 3.47665 15.3165 3.44917 14.892C3.41908 14.4246 3.74813 14.0785 4.23616 14.0778C5.58377 14.075 6.93205 14.0771 8.27967 14.0771C9.08824 14.0771 9.89681 14.075 10.706 14.0785C10.9965 14.0798 11.2313 14.204 11.3713 14.4814C11.5002 14.7367 11.493 14.9989 11.3465 15.2451C11.1882 15.5107 10.9448 15.6064 10.6563 15.6057C9.58607 15.6037 8.51583 15.605 7.44624 15.605L7.44558 15.6044Z" fill="#505762"/>
<path d="M7.45924 12.488C6.38114 12.488 5.30239 12.4915 4.2243 12.4866C3.63292 12.4838 3.26919 11.9137 3.51974 11.3886C3.65843 11.0973 3.89852 10.9614 4.19682 10.9607C6.37002 10.9572 8.54257 10.9552 10.7158 10.9621C11.1613 10.9635 11.4622 11.304 11.453 11.7493C11.4445 12.1752 11.1325 12.4852 10.6935 12.4873C9.61543 12.4915 8.53668 12.4887 7.45859 12.4887L7.45924 12.488Z" fill="#505762"/>
<path d="M13.715 23.3934C13.1844 23.3934 12.6532 23.3948 12.1227 23.3934C11.6353 23.3913 11.3154 23.0841 11.3174 22.6249C11.3194 22.1685 11.6406 21.8675 12.1325 21.8668C13.1942 21.8654 14.2553 21.8654 15.3171 21.8668C15.8025 21.8675 16.1381 22.1769 16.1433 22.6235C16.1492 23.0771 15.8071 23.3934 15.3066 23.3941C14.7761 23.3955 14.2449 23.3941 13.7143 23.3941L13.715 23.3934Z" fill="#505762"/>
</svg>
