<svg width="17" height="17" viewBox="0 0 17 17" fill="none" xmlns="http://www.w3.org/2000/svg">
<path d="M13.336 1.35833H12.636V0.679166C12.636 0.49904 12.5623 0.326291 12.431 0.198923C12.2997 0.0715548 12.1217 0 11.936 0C11.7503 0 11.5723 0.0715548 11.441 0.198923C11.3097 0.326291 11.236 0.49904 11.236 0.679166V1.35833H5.615V0.679166C5.615 0.49904 5.54125 0.326291 5.40997 0.198923C5.2787 0.0715548 5.10065 0 4.915 0C4.72935 0 4.5513 0.0715548 4.42003 0.198923C4.28875 0.326291 4.215 0.49904 4.215 0.679166V1.35833H3.515C3.05353 1.3582 2.59656 1.44627 2.17017 1.61749C1.74379 1.78871 1.35633 2.03974 1.02993 2.35624C0.703536 2.67274 0.444586 3.04852 0.26787 3.46212C0.0911536 3.87572 0.000131303 4.31904 0 4.76677L0 12.9391C0.00105869 13.842 0.371201 14.7076 1.02922 15.346C1.68725 15.9845 2.57942 16.3436 3.51 16.3446H13.337C14.2676 16.3436 15.1598 15.9845 15.8178 15.346C16.4758 14.7076 16.8459 13.842 16.847 12.9391V4.76677C16.8467 3.86321 16.4768 2.99671 15.8185 2.35761C15.1602 1.71852 14.2673 1.3591 13.336 1.35833ZM1.4 4.76677C1.40013 4.4982 1.45483 4.23228 1.56098 3.98423C1.66712 3.73618 1.82263 3.51087 2.0186 3.32118C2.21457 3.1315 2.44716 2.98115 2.70307 2.87876C2.95898 2.77636 3.23318 2.72392 3.51 2.72443H13.337C13.8955 2.72443 14.4312 2.9397 14.8262 3.3229C15.2211 3.7061 15.443 4.22582 15.443 4.76775V5.44691H1.4V4.76677ZM13.336 14.9824H3.51C3.2331 14.9829 2.95881 14.9304 2.70284 14.828C2.44687 14.7255 2.21423 14.5751 2.01825 14.3853C1.82226 14.1955 1.66678 13.9701 1.56069 13.7219C1.4546 13.4738 1.4 13.2077 1.4 12.9391V6.81009H15.442V12.9391C15.442 13.481 15.2201 14.0007 14.8252 14.3839C14.4302 14.7671 13.8945 14.9824 13.336 14.9824Z" fill="#949494"/>
<path d="M8.42312 11.2367C9.00467 11.2367 9.47612 10.7793 9.47612 10.215C9.47612 9.65077 9.00467 9.19336 8.42312 9.19336C7.84156 9.19336 7.37012 9.65077 7.37012 10.215C7.37012 10.7793 7.84156 11.2367 8.42312 11.2367Z" fill="#949494"/>
<path d="M4.91335 11.2367C5.49491 11.2367 5.96635 10.7793 5.96635 10.215C5.96635 9.65077 5.49491 9.19336 4.91335 9.19336C4.3318 9.19336 3.86035 9.65077 3.86035 10.215C3.86035 10.7793 4.3318 11.2367 4.91335 11.2367Z" fill="#949494"/>
<path d="M11.9329 11.2367C12.5144 11.2367 12.9859 10.7793 12.9859 10.215C12.9859 9.65077 12.5144 9.19336 11.9329 9.19336C11.3513 9.19336 10.8799 9.65077 10.8799 10.215C10.8799 10.7793 11.3513 11.2367 11.9329 11.2367Z" fill="#949494"/>
</svg>
