<svg width="21" height="21" viewBox="0 0 21 21" fill="none" xmlns="http://www.w3.org/2000/svg">
<path fill-rule="evenodd" clip-rule="evenodd" d="M0.168945 5.98323C0.168814 5.19746 0.323655 4.41938 0.624634 3.6934C0.925613 2.96742 1.36683 2.30779 1.92308 1.75217C2.47933 1.19655 3.13972 0.755814 3.86652 0.455174C4.59332 0.154535 5.3723 -0.000131129 6.15895 8.34167e-08H14.4919C15.2786 -0.000131129 16.0576 0.154535 16.7844 0.455174C17.5112 0.755814 18.1716 1.19655 18.7278 1.75217C19.2841 2.30779 19.7253 2.96742 20.0262 3.6934C20.3272 4.41938 20.4821 5.19746 20.4819 5.98323V14.3068C20.4821 15.0926 20.3272 15.8707 20.0262 16.5967C19.7253 17.3227 19.2841 17.9823 18.7278 18.5379C18.1716 19.0935 17.5112 19.5343 16.7844 19.8349C16.0576 20.1355 15.2786 20.2902 14.4919 20.2901H6.15895C5.3723 20.2902 4.59332 20.1355 3.86652 19.8349C3.13972 19.5343 2.47933 19.0935 1.92308 18.5379C1.36683 17.9823 0.925613 17.3227 0.624634 16.5967C0.323655 15.8707 0.168814 15.0926 0.168945 14.3068V5.98323ZM6.15895 1.56123C5.57759 1.56123 5.00192 1.67559 4.46481 1.89782C3.9277 2.12005 3.43966 2.44577 3.02858 2.85639C2.61749 3.26701 2.2914 3.75449 2.06892 4.29099C1.84645 4.82749 1.73195 5.40253 1.73195 5.98323V14.3068C1.73195 15.4796 2.19836 16.6044 3.02858 17.4337C3.8588 18.263 4.98484 18.7288 6.15895 18.7288H14.4919C15.6661 18.7288 16.7921 18.263 17.6223 17.4337C18.4525 16.6044 18.9189 15.4796 18.9189 14.3068V5.98323C18.9189 5.40253 18.8044 4.82749 18.582 4.29099C18.3595 3.75449 18.0334 3.26701 17.6223 2.85639C17.2112 2.44577 16.7232 2.12005 16.1861 1.89782C15.649 1.67559 15.0733 1.56123 14.4919 1.56123H6.15895ZM14.2319 5.46282C14.2322 5.66964 14.3146 5.8679 14.461 6.01414C14.6074 6.16039 14.8059 6.24268 15.0129 6.24295H16.0549C16.262 6.24268 16.4605 6.16039 16.6069 6.01414C16.7533 5.8679 16.8357 5.66964 16.836 5.46282V4.42201C16.8357 4.21519 16.7533 4.01693 16.6069 3.87069C16.4605 3.72445 16.262 3.64215 16.0549 3.64188H15.0129C14.8059 3.64215 14.6074 3.72445 14.461 3.87069C14.3146 4.01693 14.2322 4.21519 14.2319 4.42201V5.46282ZM6.93994 10.1455C6.93994 9.47679 7.13847 8.82306 7.51042 8.26703C7.88237 7.711 8.41103 7.27765 9.02956 7.02173C9.64808 6.76582 10.3287 6.69886 10.9853 6.82932C11.6419 6.95979 12.2451 7.2818 12.7185 7.75467C13.1919 8.22754 13.5143 8.83004 13.6449 9.48593C13.7755 10.1418 13.7085 10.8216 13.4523 11.4395C13.1961 12.0573 12.7622 12.5853 12.2056 12.9569C11.6489 13.3284 10.9944 13.5267 10.325 13.5267C9.88034 13.5267 9.44008 13.4392 9.02933 13.2693C8.61858 13.0993 8.24537 12.8502 7.93103 12.5361C7.61669 12.222 7.36738 11.8491 7.19733 11.4387C7.02727 11.0284 6.93981 10.5896 6.93994 10.1455ZM10.325 5.20311C9.34633 5.20311 8.38968 5.49301 7.57599 6.03609C6.76229 6.57917 6.12809 7.35106 5.75359 8.25417C5.37908 9.15727 5.2811 10.151 5.47202 11.1098C5.66294 12.0685 6.1342 12.9491 6.82619 13.6404C7.51818 14.3316 8.39982 14.8023 9.35963 14.993C10.3195 15.1837 11.3143 15.0858 12.2185 14.7117C13.1226 14.3376 13.8954 13.7042 14.4391 12.8914C14.9827 12.0786 15.2729 11.123 15.2729 10.1455C15.2731 9.49639 15.1452 8.85362 14.8966 8.25386C14.648 7.6541 14.2835 7.10913 13.8241 6.65008C13.3646 6.19103 12.8191 5.82686 12.2187 5.57842C11.6183 5.32997 10.9748 5.20311 10.325 5.20311Z" fill="white"/>
</svg>
