<svg width="21" height="21" viewBox="0 0 21 21" fill="none" xmlns="http://www.w3.org/2000/svg">
<path fill-rule="evenodd" clip-rule="evenodd" d="M0.62793 2.86176C0.627798 2.48591 0.701816 2.1137 0.845749 1.76644C0.989682 1.41917 1.20072 1.10369 1.46678 0.837921C1.73285 0.572155 2.04874 0.36136 2.39639 0.217589C2.74405 0.0738181 3.11666 -0.000131081 3.49294 1.74421e-07H18.0779C18.4542 -0.000131081 18.8268 0.0738181 19.1745 0.217589C19.5221 0.36136 19.838 0.572155 20.1041 0.837921C20.3701 1.10369 20.5812 1.41917 20.7251 1.76644C20.869 2.1137 20.9431 2.48591 20.9429 2.86176V17.4303C20.9431 17.8062 20.869 18.1784 20.7251 18.5256C20.5812 18.8729 20.3701 19.1884 20.1041 19.4542C19.838 19.7199 19.5221 19.9307 19.1745 20.0745C18.8268 20.2183 18.4542 20.2922 18.0779 20.2921H3.49294C3.11666 20.2922 2.74405 20.2183 2.39639 20.0745C2.04874 19.9307 1.73285 19.7199 1.46678 19.4542C1.20072 19.1884 0.989682 18.8729 0.845749 18.5256C0.701816 18.1784 0.627798 17.8062 0.62793 17.4303V2.86176ZM3.49294 1.56324C3.14815 1.56324 2.81748 1.70002 2.57368 1.94354C2.32989 2.18707 2.19293 2.51737 2.19293 2.86176V17.4303C2.19293 17.7747 2.32989 18.105 2.57368 18.3485C2.81748 18.5921 3.14815 18.7288 3.49294 18.7288H18.0779C18.4227 18.7288 18.7534 18.5921 18.9972 18.3485C19.241 18.105 19.3779 17.7747 19.3779 17.4303V2.86176C19.3779 2.51737 19.241 2.18707 18.9972 1.94354C18.7534 1.70002 18.4227 1.56324 18.0779 1.56324H3.49294ZM6.61794 8.847C6.82499 8.84727 7.02348 8.92956 7.16989 9.07581C7.3163 9.22205 7.39866 9.42031 7.39893 9.62713V16.3905C7.39893 16.5974 7.31665 16.7958 7.17018 16.9421C7.02372 17.0884 6.82507 17.1706 6.61794 17.1706C6.4108 17.1706 6.21214 17.0884 6.06567 16.9421C5.91921 16.7958 5.83693 16.5974 5.83693 16.3905V9.62713C5.83614 9.52413 5.85576 9.42202 5.89464 9.32662C5.93352 9.23123 5.9909 9.14445 6.06349 9.0713C6.13608 8.99814 6.22243 8.94003 6.31758 8.90035C6.41274 8.86066 6.51482 8.84012 6.61794 8.83999V8.847ZM11.0449 14.8302V12.4859C11.0449 11.9339 11.2644 11.4046 11.6552 11.0143C12.0459 10.624 12.5759 10.4048 13.1284 10.4048C13.681 10.4048 14.211 10.624 14.6017 11.0143C14.9924 11.4046 15.2119 11.9339 15.2119 12.4859V16.3875C15.2119 16.5945 15.2943 16.7931 15.4408 16.9395C15.5874 17.0859 15.7862 17.1681 15.9934 17.1681C16.2007 17.1681 16.3995 17.0859 16.546 16.9395C16.6926 16.7931 16.7749 16.5945 16.7749 16.3875V12.4859C16.7749 11.8195 16.5917 11.1659 16.2455 10.5962C15.8993 10.0266 15.4032 9.56285 14.8113 9.25535C14.2195 8.94785 13.5545 8.80841 12.8888 8.85231C12.2231 8.8962 11.5822 9.12173 11.0359 9.50428C11.0061 9.30965 10.9037 9.13348 10.7493 9.01112C10.5948 8.88877 10.3998 8.82927 10.2033 8.84456C10.0067 8.85986 9.82327 8.94884 9.68967 9.09361C9.55607 9.23838 9.48222 9.42822 9.48293 9.62511V16.3885C9.48293 16.5955 9.56526 16.7941 9.71182 16.9405C9.85838 17.0869 10.0572 17.1691 10.2644 17.1691C10.4717 17.1691 10.6705 17.0869 10.817 16.9405C10.9636 16.7941 11.0459 16.5955 11.0459 16.3885L11.0449 14.8302ZM6.09692 7.28675C5.88987 7.28649 5.69138 7.20425 5.54497 7.05801C5.39856 6.91176 5.3162 6.71345 5.31593 6.50663V5.46581C5.3162 5.25899 5.39856 5.06074 5.54497 4.91449C5.69138 4.76825 5.88987 4.68595 6.09692 4.68569H7.13893C7.34598 4.68595 7.54448 4.76825 7.69089 4.91449C7.8373 5.06074 7.91967 5.25899 7.91994 5.46581V6.50663C7.91967 6.71345 7.8373 6.91176 7.69089 7.05801C7.54448 7.20425 7.34598 7.28649 7.13893 7.28675H6.09692Z" fill="white"/>
</svg>
