<svg width="21" height="18" viewBox="0 0 21 18" fill="none" xmlns="http://www.w3.org/2000/svg">
<path fill-rule="evenodd" clip-rule="evenodd" d="M13.9938 1.64101C13.096 1.64101 12.235 1.99725 11.6002 2.63135C10.9654 3.26544 10.6088 4.12546 10.6088 5.0222V5.88219V5.89518V5.90518V5.91115V5.91719V6.69731H9.82778C8.48513 6.69897 7.15555 6.43389 5.91639 5.91755C4.67723 5.40122 3.55324 4.6439 2.60979 3.68966C2.11398 5.30087 2.17173 7.03146 2.77386 8.60611C3.37598 10.1808 4.4879 11.5091 5.93278 12.3799L7.12078 13.0961L5.89278 13.7393C5.0549 14.1812 4.16358 14.5136 3.24078 14.7282C4.78539 15.3862 6.46922 15.6513 8.14156 15.4999C9.8139 15.3485 11.4226 14.7853 12.8236 13.8606C14.2246 12.9359 15.3742 11.6787 16.1695 10.2015C16.9648 8.72423 17.381 7.07305 17.3808 5.39574V5.02519C17.3807 4.90421 17.4088 4.78486 17.4628 4.67659L18.4628 2.68384H16.7538C16.5628 2.68273 16.3788 2.61163 16.2368 2.48405C15.6177 1.93818 14.8196 1.63821 13.9938 1.64101ZM9.04578 5.0222C9.04584 4.09708 9.30585 3.19053 9.79621 2.40571C10.2866 1.6209 10.9876 0.98933 11.8196 0.58282C12.6515 0.176311 13.581 0.0111737 14.5023 0.106247C15.4235 0.20132 16.2996 0.55278 17.0308 1.1206H19.7228C19.856 1.12038 19.9871 1.15418 20.1035 1.21882C20.2199 1.28346 20.3179 1.37676 20.388 1.48988C20.4582 1.60299 20.4982 1.73214 20.5043 1.86506C20.5104 1.99799 20.4823 2.1303 20.4228 2.24933L18.9428 5.20596V5.54158C18.9428 7.70192 18.3442 9.82013 17.2134 11.6617C16.0826 13.5032 14.4637 14.9963 12.5359 15.9755C10.6081 16.9548 8.44657 17.3821 6.29066 17.21C4.13474 17.038 2.06853 16.2735 0.320785 15.0009C0.187645 14.9039 0.0886283 14.7674 0.0379098 14.6107C-0.0128086 14.4541 -0.0126314 14.2855 0.0384134 14.129C0.0894581 13.9725 0.188755 13.8361 0.322097 13.7394C0.455439 13.6427 0.615994 13.5906 0.780784 13.5905C1.86685 13.5935 2.94495 13.4054 3.96578 13.0351C2.40165 11.7212 1.32467 9.92063 0.907592 7.92219C0.490516 5.92375 0.757524 3.84328 1.66579 2.01455C1.72513 1.89596 1.81371 1.79443 1.92319 1.71948C2.03268 1.64452 2.15947 1.59863 2.29161 1.58614C2.42375 1.57365 2.5569 1.59498 2.67852 1.64808C2.80014 1.70119 2.90623 1.78432 2.98679 1.88969C3.70811 2.83989 4.62001 3.62931 5.66418 4.20739C6.70835 4.78547 7.8618 5.13952 9.05078 5.24692V5.02519L9.04578 5.0222Z" fill="white"/>
</svg>
