<svg width="27" height="18" viewBox="0 0 27 18" fill="none" xmlns="http://www.w3.org/2000/svg">
<path d="M7.03795 1.28571C7.03795 0.575658 7.6136 0 8.32366 0H25.0379C25.748 0 26.3237 0.575658 26.3237 1.28571C26.3237 1.99577 25.748 2.57143 25.0379 2.57143H8.32366C7.6136 2.57143 7.03795 1.99572 7.03795 1.28571ZM25.0379 7.71428H1.89509C1.18503 7.71428 0.609375 8.28999 0.609375 9C0.609375 9.71006 1.18503 10.2857 1.89509 10.2857H25.0379C25.748 10.2857 26.3237 9.71006 26.3237 9C26.3237 8.28999 25.748 7.71428 25.0379 7.71428ZM25.0379 15.4286H13.4665C12.7565 15.4286 12.1808 16.0042 12.1808 16.7143C12.1808 17.4243 12.7565 18 13.4665 18H25.0379C25.748 18 26.3237 17.4243 26.3237 16.7143C26.3237 16.0042 25.748 15.4286 25.0379 15.4286Z" fill="white"/>
</svg>
