<svg width="19" height="22" viewBox="0 0 19 22" fill="none" xmlns="http://www.w3.org/2000/svg">
<path d="M4.10191 6.20127C4.10191 9.1518 6.50629 11.5525 9.4604 11.5525C12.4145 11.5525 14.8189 9.1518 14.8189 6.20127C14.8189 3.25075 12.4145 0.85 9.4604 0.85C6.50629 0.85 4.10191 3.25075 4.10191 6.20127ZM5.76065 6.20127C5.76065 4.16762 7.42342 2.50685 9.4604 2.50685C11.4974 2.50685 13.1602 4.16762 13.1602 6.20127C13.1602 8.23493 11.4974 9.89569 9.4604 9.89569C7.42342 9.89569 5.76065 8.23493 5.76065 6.20127ZM16.4121 20.3216C16.4121 20.7755 16.7874 21.15 17.2414 21.15C17.6955 21.15 18.0708 20.7755 18.0708 20.3216C18.0708 16.3511 14.1807 13.1612 9.4604 13.1612C4.74015 13.1612 0.85 16.3511 0.85 20.3216C0.85 20.7755 1.22533 21.15 1.67937 21.15C2.1334 21.15 2.50874 20.7755 2.50874 20.3216C2.50874 17.3138 5.59627 14.818 9.4604 14.818C13.3245 14.818 16.4121 17.3138 16.4121 20.3216Z" fill="white" stroke="white" stroke-width="0.3"/>
</svg>
